<?xml version="1.0" standalone="no"?>
<!DOCTYPE svg PUBLIC "-//W3C//DTD SVG 20010904//EN"
 "http://www.w3.org/TR/2001/REC-SVG-20010904/DTD/svg10.dtd">
<svg version="1.0" xmlns="http://www.w3.org/2000/svg"
 width="700.000000pt" height="700.000000pt" viewBox="0 0 700.000000 700.000000"
 preserveAspectRatio="xMidYMid meet">
<metadata>
Created by potrace 1.14, written by Peter Selinger 2001-2017
</metadata>
<g transform="translate(0.000000,700.000000) scale(0.100000,-0.100000)"
fill="#000000" stroke="none">
<path d="M3397 6984 c-1 -1 -51 -4 -112 -8 -620 -35 -1247 -255 -1766 -619
-59 -41 -113 -79 -120 -85 -8 -6 -57 -46 -109 -88 -131 -107 -376 -355 -492
-499 -272 -340 -473 -713 -606 -1125 -48 -149 -105 -382 -117 -481 -3 -24 -7
-55 -10 -69 -7 -31 -13 -84 -20 -175 -3 -38 -8 -86 -10 -105 -6 -43 -6 -411 0
-460 2 -19 6 -69 10 -110 7 -88 42 -318 57 -375 6 -22 12 -49 14 -60 18 -114
113 -408 189 -585 419 -987 1308 -1752 2335 -2009 326 -82 522 -106 870 -106
286 0 429 13 670 60 103 20 146 30 225 51 316 87 599 206 878 371 99 59 223
139 237 153 3 3 28 22 57 42 28 20 60 44 70 52 385 315 630 593 862 981 39 64
203 389 208 411 1 5 15 41 32 80 56 136 146 435 167 554 3 14 11 57 19 95 7
39 17 94 20 124 4 30 8 63 11 74 19 103 27 577 11 752 -7 75 -21 173 -54 370
-26 156 -129 483 -218 690 -254 592 -695 1124 -1240 1497 -503 344 -1104 553
-1710 594 -89 6 -353 12 -358 8z m358 -178 c645 -49 1250 -279 1770 -675 33
-25 65 -50 71 -56 6 -5 35 -30 65 -55 111 -93 385 -375 437 -452 9 -13 19 -25
22 -28 3 -3 40 -52 81 -110 187 -261 326 -528 431 -825 49 -139 112 -363 124
-440 3 -22 9 -58 14 -80 5 -22 12 -62 15 -90 3 -27 8 -61 10 -75 22 -127 33
-473 20 -635 -8 -108 -20 -217 -29 -270 -3 -16 -12 -72 -21 -123 -47 -273
-153 -586 -292 -863 -46 -92 -101 -195 -123 -228 -22 -34 -40 -64 -40 -66 0
-7 -81 -122 -146 -210 -146 -196 -291 -351 -516 -552 -64 -57 -284 -216 -390
-283 -187 -117 -456 -245 -673 -320 -89 -31 -295 -90 -335 -96 -19 -3 -38 -8
-41 -10 -3 -2 -19 -5 -35 -8 -16 -3 -69 -12 -119 -20 -194 -33 -291 -41 -545
-41 -196 0 -320 6 -418 21 -144 21 -284 48 -387 74 -122 31 -392 117 -410 130
-5 4 -21 11 -35 15 -44 13 -323 150 -394 193 -37 23 -70 42 -72 42 -3 0 -46
28 -97 62 -365 245 -593 464 -895 863 -64 85 -186 291 -262 444 -127 253 -249
614 -284 841 -3 19 -8 46 -11 60 -12 57 -31 215 -41 345 -11 154 -6 443 11
570 2 17 9 66 15 110 37 269 122 577 227 825 48 112 173 357 204 402 11 14 19
29 19 32 0 10 148 225 207 300 105 134 147 181 298 331 358 356 770 614 1245
780 98 34 360 105 440 119 19 3 46 8 59 11 21 4 73 11 211 30 14 2 70 7 125
11 55 3 101 7 102 8 5 4 307 -2 388 -8z"/>
<path d="M3235 6589 c-154 -15 -191 -20 -410 -63 -111 -22 -347 -96 -482 -152
-78 -32 -242 -110 -251 -118 -1 -2 33 -61 78 -131 44 -70 80 -135 81 -144 0
-9 2 -25 4 -37 3 -12 -6 -41 -18 -65 -40 -79 -139 -108 -207 -60 -27 19 -69
78 -148 208 l-49 82 -39 -26 c-45 -30 -177 -125 -184 -133 -3 -3 -38 -31 -78
-64 -177 -141 -419 -406 -565 -617 l-66 -95 52 -27 c102 -51 202 -109 221
-125 98 -90 33 -256 -100 -254 -31 0 -64 11 -112 37 -37 21 -99 55 -138 76
l-71 39 -26 -53 c-167 -342 -274 -731 -302 -1102 -8 -100 -8 -96 -6 -110 1 -6
59 -9 158 -7 144 2 161 1 191 -18 93 -57 96 -178 7 -245 -36 -28 -58 -30 -303
-34 -59 -1 -62 -2 -58 -23 3 -13 7 -59 11 -103 3 -44 8 -96 10 -115 3 -19 7
-51 10 -70 3 -19 7 -46 10 -60 3 -14 10 -52 16 -85 40 -231 180 -634 275 -799
11 -18 20 -14 137 58 150 92 167 98 229 79 87 -25 126 -115 88 -200 -18 -40
-62 -73 -232 -174 -32 -18 -58 -37 -58 -42 0 -19 171 -250 262 -354 59 -68
251 -258 323 -320 75 -64 264 -206 314 -236 l29 -17 73 135 c80 150 105 176
178 182 83 7 151 -51 156 -135 2 -29 -12 -65 -63 -162 -36 -69 -71 -135 -79
-147 -14 -22 -13 -23 74 -63 198 -93 483 -193 613 -216 14 -3 41 -9 60 -14 31
-8 122 -24 205 -36 17 -3 39 -6 50 -9 19 -4 172 -16 233 -19 30 -1 28 -27 22
226 -2 70 1 94 16 119 57 96 181 104 248 16 26 -34 27 -41 32 -189 2 -84 6
-158 9 -165 2 -8 18 -11 42 -8 21 2 70 7 108 10 39 3 79 8 90 10 11 2 42 7 68
10 43 5 100 15 167 30 14 3 37 7 51 10 106 19 398 111 496 156 23 10 44 19 46
19 11 0 197 92 197 98 0 3 -31 55 -69 116 -90 146 -91 148 -91 196 0 102 104
172 198 134 35 -14 62 -42 97 -101 11 -18 44 -71 73 -118 l53 -85 67 47 c158
111 285 217 422 353 80 80 159 161 175 180 72 86 146 182 203 264 l62 90 -72
40 c-239 130 -243 134 -243 226 0 53 3 62 34 93 59 62 126 64 231 5 25 -14 79
-44 121 -66 l76 -41 56 117 c116 246 221 597 252 841 4 30 8 62 10 71 2 10 7
64 10 121 4 57 8 108 9 114 0 5 -17 9 -39 8 -193 -7 -265 -4 -299 12 -101 48
-112 181 -22 250 39 30 50 31 264 35 l103 2 -6 72 c-9 105 -15 158 -20 186 -3
14 -7 43 -10 65 -2 22 -7 51 -10 65 -12 64 -15 77 -19 100 -33 193 -197 654
-275 769 -7 11 -30 1 -112 -51 -139 -87 -162 -98 -204 -98 -96 0 -160 83 -141
183 9 47 36 72 176 158 66 41 120 79 120 84 0 21 -163 243 -254 345 -71 80
-217 230 -264 270 -22 19 -63 55 -91 80 -53 45 -302 230 -311 230 -5 0 -70
-116 -115 -204 -11 -22 -34 -54 -52 -72 -68 -69 -184 -49 -230 39 -33 64 -19
106 109 334 l29 52 -93 44 c-206 98 -514 204 -673 230 -16 3 -53 10 -82 16
-29 6 -74 13 -100 16 -26 3 -57 8 -68 10 -27 5 -117 14 -192 20 -72 5 -66 14
-62 -105 5 -192 4 -219 -18 -248 -37 -50 -79 -71 -133 -67 -59 4 -105 33 -125
81 -9 23 -16 85 -19 177 -2 78 -5 147 -5 153 -1 12 -16 13 -126 3z m374 -1352
c51 -48 51 -41 51 -702 l0 -615 58 -29 c170 -86 266 -285 227 -472 -7 -35 -11
-67 -9 -70 3 -6 326 -191 423 -244 147 -79 182 -115 183 -191 1 -71 -38 -124
-105 -142 -65 -18 -68 -17 -297 113 -80 46 -165 94 -190 108 -25 14 -84 47
-131 75 -59 34 -91 47 -100 41 -32 -21 -148 -50 -199 -51 -156 -2 -298 74
-382 205 -70 109 -87 256 -44 379 24 67 75 146 116 181 27 23 120 82 140 89
13 5 15 82 15 624 0 545 2 622 16 653 19 43 37 59 85 76 46 15 109 3 143 -28z"/>
<path d="M3445 3636 c-92 -52 -109 -175 -34 -242 67 -59 167 -46 221 28 29 42
31 122 2 161 -43 58 -135 83 -189 53z"/>
</g>
</svg>
